# xmcd CD database file
# Copyright (C) 1997 Ti Kan
#
# Track frame offsets:
#  187
#  16110
#  33397
#  49245
#  63527
#  84132
#  101010
#  116072
#  132867
#  151110
#  163047
#
# Disc length: 2377 seconds
#
# Revision: 1
# Processed by: cddbd v1.4b41PL1 Copyright (c) Steve Scherf et al.
# Submitted via: CDWizzard Release:4.32
#
DISCID=8209470b
DTITLE=Paul Overstreet - Heroes
DYEAR=1900
DGENRE=
TTITLE0=Ball and Chain
TTITLE1=If I Could Bottle This Up
TTITLE2=Daddy's Come Around
TTITLE3=Love Lives On
TTITLE4=Heroes
TTITLE5=I'm So Glad I Was Dreaming
TTITLE6=Straight And Narrow
TTITLE7=Billy Can't Read
TTITLE8=She Supports Her Man
TTITLE9='Til The Mountains Disappear
TTITLE10=The Calm At The Center Of My Storm
EXTD=
EXTT0=
EXTT1=
EXTT2=
EXTT3=
EXTT4=
EXTT5=
EXTT6=
EXTT7=
EXTT8=
EXTT9=
EXTT10=
PLAYORDER=
